<svg xmlns="http://www.w3.org/2000/svg" width="229.021" height="30.691" viewBox="0 0 229.021 30.691">
  <g id="Camada_x0020_1" transform="translate(-0.01 -0.016)">
    <g id="_2491718519120" transform="translate(0.01 0.016)">
      <path id="Caminho_1" data-name="Caminho 1" d="M4.833,28.306V19.3c4.947-.13,16.325-1.121,17.934,1.982,1.237,2.457.247,5.517-1.237,6.465-2.1,1.206-13.605.69-16.7.56Zm0-20.128c3.462,0,6.926,0,10.389-.043,3.092,0,6.431-.3,6.307,3.448-.247,5.086-12.491,3.06-16.7,3.147V8.18Zm19.789,8.4c1.113-2.586,2.6-4.1,1.484-7.931a6.915,6.915,0,0,0-5.689-4.784C17.7,3.307,3.225,3.437.01,3.738V32.743c4.577.6,20.284.776,23.623-.863,6.184-3.06,6.307-12.154.99-15.3Z" transform="translate(-0.01 -3.017)" fill="#202426" fill-rule="evenodd"/>
      <path id="Caminho_2" data-name="Caminho 2" d="M1075.734,19.307h2.969c6.431-.043,14.223-1.206,15.336,2.759,2.227,8.447-8.534,6.637-18.3,6.25V19.307Zm0-11.076c3.462-.086,6.926-.043,10.389-.043,3.092-.043,6.431-.13,6.308,3.4-.247,5-12.368,3.147-16.7,3.06V8.231Zm19.789,8.361c2.35-5.086,2.845-11.291-4.082-12.714-2.722-.56-17.439-.431-20.531-.13V32.753c3.834.56,20.654.6,23.252-.733a8.947,8.947,0,0,0,1.36-15.429Z" transform="translate(-927.69 -3.025)" fill="#07877d" fill-rule="evenodd"/>
      <path id="Caminho_3" data-name="Caminho 3" d="M1499.714,21.211l-2.474,4.223c9.276,6.55,23.252,7.586,27.7-.258,3.092-5.775-.99-10.861-5.442-12.412-5.566-1.939-11.131.258-15.583-3.491l-.123-2.284c6.431-5.474,13.358-.863,17.81,1.854a8.952,8.952,0,0,0,2.845-3.663c-2.722-3.878-13.976-6.637-20.037-4.31-7.544,2.887-7.916,12.154.123,14.481,3.957,1.121,7.668.733,11.5,1.423,9.029,1.551,4.7,11.679-7.049,8.879-4.329-1.034-5.937-2.974-9.276-4.439Z" transform="translate(-1297.004 -0.016)" fill="#07877d" fill-rule="evenodd"/>
      <path id="Caminho_4" data-name="Caminho 4" d="M834.248,53.684c11.626-4.526,18.182,10.343,7.421,13.964-5.194,1.767-10.636-.518-12.244-3.965-2.35-5.431,1.237-8.577,4.824-10Zm-10.018,9.87C827.321,77,854.9,75.578,851.686,58.21,849.212,43.729,820.148,45.84,824.229,63.554Z" transform="translate(-713.66 -42.143)" fill="#202426" fill-rule="evenodd"/>
      <path id="Caminho_5" data-name="Caminho 5" d="M431.163,60.834c2.6,2.371,4.577,5.086,6.926,7.413a32.5,32.5,0,0,1,3.463,3.878c1.36,1.638,1.979,2.672,5.071,2.2v-22.8l-4.7.173V65.23c-.99-.6-.247-.086-1.237-1.034l-9.4-10.3c-1.608-2.026-1.237-2.457-4.947-2.414V74.5l4.7-.043Z" transform="translate(-369.324 -44.596)" fill="#202426" fill-rule="evenodd"/>
      <path id="Caminho_6" data-name="Caminho 6" d="M632.164,62.039c-3.71,7.456-16.945,6.077-17.439-2.37-.247-4.4,2.968-7.2,6.8-7.844,6.555-1.206,8.9,2.672,10.884,3.663l3.215-2.629c-1.979-2.112-2.6-3.491-6.307-4.827-8.286-3.017-20.531,1.293-19.417,12.542,1.36,13.231,21.4,14.136,26.221,4.1a8.077,8.077,0,0,0-3.957-2.629Z" transform="translate(-528.273 -40.801)" fill="#202426" fill-rule="evenodd"/>
      <path id="Caminho_7" data-name="Caminho 7" d="M1330.984,9.859l18.675-.086-.123-4.353-23.376.043V34.512l4.824.043.123-13.231,11.132-.173v-4.4l-11.255-.044Z" transform="translate(-1148.803 -4.697)" fill="#07877d" fill-rule="evenodd"/>
      <path id="Caminho_8" data-name="Caminho 8" d="M227.71,64.1a8.011,8.011,0,0,1,1.113-2.974L230.8,58.37l2.474,5.775L227.71,64.1Zm-2.474,4.353,10.513-.043,2.6,5.431,5.194-.043-9.4-18.834c-2.474-4.827-1.608-4.31-5.194-4.138L217.32,73.8l5.071.043,2.845-5.387Z" transform="translate(-188.257 -43.943)" fill="#202426" fill-rule="evenodd"/>
    </g>
  </g>
</svg>
