<svg id="retirada" xmlns="http://www.w3.org/2000/svg" width="20.014" height="20.348" viewBox="0 0 20.014 20.348">
  <path id="Caminho_126" data-name="Caminho 126" d="M6.134,182.513c0,.826.772.648,1.349.648,1.351,0,2.55-.2,3.347.485a1.817,1.817,0,0,1-.161,2.809c-.571.409-.958.322-1.891.322a.6.6,0,0,1-1.037.443.659.659,0,0,1-.15-.443,5.432,5.432,0,0,1-1.916-.135c-.305-.2-.5-1.058.619-1.055a21.583,21.583,0,0,0,3.675-.1.627.627,0,0,0-.074-1.066,18.292,18.292,0,0,0-2.844-.071,1.835,1.835,0,0,1-1.909-2.665,1.955,1.955,0,0,1,.388-.53,2.714,2.714,0,0,1,2.061-.476c0-.744.791-.653,1.018-.425.134.134.122.223.169.425.623,0,1.659-.1,1.96.2.139.14.58,1.051-.772,1.042l-3.281.011a.59.59,0,0,0-.551.582Zm1.673,8.528a10.359,10.359,0,0,0,4.371-.756,6.377,6.377,0,0,0,4.1-6.476,6.124,6.124,0,0,0-.378-1.943,5.374,5.374,0,0,1-1.08.108,2.559,2.559,0,0,1-1.579-.742,2.484,2.484,0,0,1-.634-2.335c-1.073,0-2.023.076-2.785-.939a3.443,3.443,0,0,1-.669-2.137H5.378a5.462,5.462,0,0,1-1.119,1.472l-1.432,1.267a8.457,8.457,0,0,0-1.67,1.892A6.984,6.984,0,0,0,.02,184.579a5.95,5.95,0,0,0,.265,1.516c.9,3.059,4.218,4.946,7.522,4.946Z" transform="translate(0.009 -170.693)" fill="#07877d" fill-rule="evenodd"/>
  <path id="Caminho_127" data-name="Caminho 127" d="M354.575,10.438c0,1.032.27.656.27,1.565s-2.231-.152-3.092.686c-1.138,1.106-.468,3.416.826,3.416h.971c.589,0,1.664-.4,1.195,1.033-.139.427-.169.205-.169.8a1.414,1.414,0,0,0,1.241,1.241c.923,0,1.031-.248,1.741-.958l2.429-2.429c.586-.586.958-.817.958-1.687,0-.635-.638-1.1-.985-1.444l-1.214-1.214-1.214-1.214c-.478-.478-.815-.985-1.606-.985A1.491,1.491,0,0,0,354.575,10.438Z" transform="translate(-340.929 -8.981)" fill="#07877d" fill-rule="evenodd"/>
  <path id="Caminho_128" data-name="Caminho 128" d="M96.576.819c-.429,0-1.487-.633-1.86.033a.527.527,0,0,0,.087.607c.138.213.82.649,1.356,1.181l.764.963c.169.215.288.222.355.508h3.94a3.041,3.041,0,0,1,.831-1.274,2.9,2.9,0,0,1,2.028-.558c.1-.05.092-.077.179-.149a.727.727,0,0,1,.2-.124,2.33,2.33,0,0,1,.27-1.457c-.86-.2-1.161.766-2.361-.23a1.607,1.607,0,0,0-1.147-.31c-.908,0-.734,1.3-1.926.307A1.134,1.134,0,0,0,98.357.01c-.721,0-1.056.81-1.781.81Z" transform="translate(-91.891 -0.01)" fill="#07877d" fill-rule="evenodd"/>
</svg>
