<svg id="sair" xmlns="http://www.w3.org/2000/svg" width="20.138" height="21.938" viewBox="0 0 20.138 21.938">
  <path id="Caminho_129" data-name="Caminho 129" d="M0,118.258a9.9,9.9,0,0,0,.885,4.128,9.647,9.647,0,0,0,2,2.931,10.024,10.024,0,0,0,6.845,3.01,9.88,9.88,0,0,0,4.628-.942A10.073,10.073,0,0,0,18.2,112.352a10.323,10.323,0,0,0-1.4-1.561,8.648,8.648,0,0,0-3.1-1.831.916.916,0,0,0-.9.986c0,1.124,1.988.777,3.942,3.557a8.168,8.168,0,0,1,1.445,5.9,7.815,7.815,0,0,1-.616,2.169c-.118.234-.172.417-.306.637a9.167,9.167,0,0,1-.749,1.136,8.559,8.559,0,0,1-1.967,1.8,8.2,8.2,0,0,1-7.73.676,9.191,9.191,0,0,1-2.042-1.258l-.724-.69c-.157-.2-.283-.3-.435-.508l-.574-.84c-.068-.115-.126-.188-.184-.287l-.447-.967a7.632,7.632,0,0,1-.485-1.872,8.043,8.043,0,0,1,.217-3.315,7.462,7.462,0,0,1,.513-1.372,7.656,7.656,0,0,1,1.561-2.21,7.57,7.57,0,0,1,2.182-1.589c.592-.295.914-.389.914-1.1a.943.943,0,0,0-.857-.857,3.162,3.162,0,0,0-1.07.387l-.935.564a10.15,10.15,0,0,0-2.079,1.863A9.961,9.961,0,0,0,0,118.258Z" transform="translate(0 -106.389)" fill="#07877d" fill-rule="evenodd"/>
  <path id="Caminho_130" data-name="Caminho 130" d="M386.8,1.114V8.955c0,1.451,1.885,1.574,1.885-.086V1.114c0-.738-.416-1.077-.851-1.114h-.162a.921.921,0,0,0-.636.323,1.168,1.168,0,0,0-.237.792Z" transform="translate(-377.674 0)" fill="#07877d" fill-rule="evenodd"/>
</svg>
