<svg id="user" xmlns="http://www.w3.org/2000/svg" width="48.001" height="48.001" viewBox="0 0 48.001 48.001">
  <path id="Exclusão_1" data-name="Exclusão 1" d="M-1998-625a23.843,23.843,0,0,1-16.971-7.03A23.844,23.844,0,0,1-2022-649a23.843,23.843,0,0,1,7.029-16.971A23.844,23.844,0,0,1-1998-673a23.843,23.843,0,0,1,16.971,7.029A23.843,23.843,0,0,1-1974-649a23.844,23.844,0,0,1-7.029,16.971A23.843,23.843,0,0,1-1998-625Zm-4.614-28.873h0a5.461,5.461,0,0,1-1.119,1.471l-1.432,1.267c-.161.156-.3.286-.409.391a6.84,6.84,0,0,0-1.261,1.5,7.008,7.008,0,0,0-1.138,4.128c.031.237.045.389.055.512a4.041,4.041,0,0,0,.21,1c.84,2.866,4,4.946,7.522,4.946a10.442,10.442,0,0,0,4.371-.757,6.418,6.418,0,0,0,3.384-2.985,6.559,6.559,0,0,0,.719-3.491,6.124,6.124,0,0,0-.378-1.943,2.188,2.188,0,0,0-.328.05,2.961,2.961,0,0,1-.752.058,2.543,2.543,0,0,1-1.579-.742,2.168,2.168,0,0,1-.659-1.956c.013-.13.025-.252.025-.378h-.411a2.541,2.541,0,0,1-2.373-.94,3.429,3.429,0,0,1-.669-2.137Zm7.964,1.945a.565.565,0,0,1,.495.179c.123.17.113.466-.031.905a1.915,1.915,0,0,1-.1.259c-.053.11-.067.139-.067.544a1.406,1.406,0,0,0,1.241,1.241,1.647,1.647,0,0,0,1.5-.711c.073-.075.153-.157.242-.247l2.428-2.429c.074-.074.145-.143.212-.208l.005-.005a1.745,1.745,0,0,0,.741-1.474,1.889,1.889,0,0,0-.791-1.26c-.07-.065-.136-.126-.195-.184l-.534-.534-.073-.073-.607-.608-1.214-1.214c-.072-.072-.142-.146-.209-.216a1.822,1.822,0,0,0-1.4-.769,1.494,1.494,0,0,0-1.35,1.188,1.7,1.7,0,0,0,.141.843,1.438,1.438,0,0,1,.129.723c0,.353-.341.4-.675.4-.168,0-.356-.014-.555-.028l-.035,0c-.231-.017-.439-.03-.647-.03a1.694,1.694,0,0,0-1.18.346,2.268,2.268,0,0,0-.4,2.42,1.4,1.4,0,0,0,1.226,1h.972c.1,0,.218-.012.34-.025A3.865,3.865,0,0,1-1994.651-651.928Zm-9.948-6.534a.6.6,0,0,0-.577.3.524.524,0,0,0,.086.607,3.006,3.006,0,0,0,.524.468,10.073,10.073,0,0,1,.832.713l.764.964a1.492,1.492,0,0,0,.15.16.585.585,0,0,1,.206.347h3.94c.035-.073.069-.149.1-.221a2.5,2.5,0,0,1,.729-1.052,2.254,2.254,0,0,1,1.454-.549c.085,0,.164,0,.231.009l.031,0c.055,0,.108.007.154.007a.35.35,0,0,0,.157-.026.333.333,0,0,0,.108-.082.685.685,0,0,1,.071-.067.552.552,0,0,1,.139-.093l.005,0,.055-.028v-.064a2.226,2.226,0,0,1,.27-1.393,1.046,1.046,0,0,0-.242-.029,1.62,1.62,0,0,0-.562.128,1.621,1.621,0,0,1-.559.129,1.6,1.6,0,0,1-1-.459,1.619,1.619,0,0,0-1.148-.31.937.937,0,0,0-.721.387.678.678,0,0,1-.478.292,1.268,1.268,0,0,1-.727-.372,1.129,1.129,0,0,0-.934-.307,1.467,1.467,0,0,0-.888.4,1.472,1.472,0,0,1-.893.406,2.1,2.1,0,0,1-.5-.112A2.918,2.918,0,0,0-2004.6-658.462Zm4.781,16.191a.565.565,0,0,1-.432-.2.655.655,0,0,1-.15-.443h-.039c-.09,0-.194,0-.3.005-.16,0-.338.008-.517.008a2.46,2.46,0,0,1-1.055-.15.62.62,0,0,1-.216-.64c.047-.155.216-.415.828-.415h.007c.1,0,.264,0,.458.007.388.007.913.017,1.432.017a6.137,6.137,0,0,0,1.787-.127.61.61,0,0,0,.261-.528.631.631,0,0,0-.337-.538,5.2,5.2,0,0,0-1.374-.09c-.411,0-.823.008-1.124.013h-.019l-.327.005h-.015a1.983,1.983,0,0,1-1.843-.871,1.87,1.87,0,0,1-.052-1.793,1.944,1.944,0,0,1,.388-.53,2.2,2.2,0,0,1,1.61-.478h.451a.525.525,0,0,1,.551-.588.7.7,0,0,1,.467.163.5.5,0,0,1,.146.312c.007.037.014.073.024.113h.032c.111,0,.233,0,.362-.007.158,0,.321-.009.485-.009a1.784,1.784,0,0,1,1.08.216.729.729,0,0,1,.145.676c-.1.243-.4.367-.9.367h-.02l-3.281.011a.593.593,0,0,0-.551.582c0,.584.385.664.8.664.095,0,.194,0,.281-.008h.008c.091,0,.177-.008.26-.008.252,0,.5-.007.739-.014h.008c.221-.006.449-.013.667-.013a2.879,2.879,0,0,1,1.934.512,1.768,1.768,0,0,1,.586,1.418,1.794,1.794,0,0,1-.748,1.391,1.747,1.747,0,0,1-1.181.33c-.091,0-.189,0-.294,0h-.008c-.121,0-.259,0-.407,0A.635.635,0,0,1-1999.818-642.272Z" transform="translate(2022 673)" fill="#202426"/>
</svg>
