<?xml version="1.0" encoding="UTF-8"?>
<!DOCTYPE svg PUBLIC "-//W3C//DTD SVG 1.1//EN" "http://www.w3.org/Graphics/SVG/1.1/DTD/svg11.dtd">
<!-- Creator: CorelDRAW 2020 (64 Bit) -->
<svg xmlns="http://www.w3.org/2000/svg" xml:space="preserve" width="102.765mm" height="13.7724mm" version="1.1" style="shape-rendering:geometricPrecision; text-rendering:geometricPrecision; image-rendering:optimizeQuality; fill-rule:evenodd; clip-rule:evenodd"
viewBox="0 0 1712.49 229.5"
 xmlns:xlink="http://www.w3.org/1999/xlink"
 xmlns:xodm="http://www.corel.com/coreldraw/odm/2003">
 <defs>
  <style type="text/css">
   <![CDATA[
    .fil1 {fill:#32886B}
    .fil2 {fill:#338669}
    .fil0 {fill:#58585A}
   ]]>
  </style>
 </defs>
 <g id="Camada_x0020_1">
  <metadata id="CorelCorpID_0Corel-Layer"/>
  <g id="_2491718519120">
   <path class="fil0" d="M36.07 189.11l0 -67.35c36.99,-0.97 122.07,-8.38 134.1,14.82 9.25,18.37 1.85,41.25 -9.25,48.34 -15.72,9.02 -101.73,5.16 -124.85,4.19zm0 -150.5c25.89,0 51.79,0 77.68,-0.32 23.12,0 48.09,-2.25 47.16,25.78 -1.85,38.03 -93.4,22.88 -124.85,23.53l0 -48.98zm147.97 62.84c8.32,-19.34 19.42,-30.62 11.1,-59.3 -5.55,-18.37 -20.35,-31.58 -42.54,-35.77 -20.35,-4.19 -128.55,-3.22 -152.59,-0.97l0 216.88c34.22,4.51 151.67,5.8 176.64,-6.45 46.24,-22.88 47.16,-90.88 7.4,-114.4z"/>
   <path class="fil1" d="M1106.98 121.76l22.2 0c48.09,-0.32 106.35,-9.02 114.67,20.63 16.65,63.16 -63.81,49.63 -136.87,46.73l0 -50.92 0 -16.44zm0 -82.82c25.89,-0.64 51.79,-0.32 77.68,-0.32 23.12,-0.32 48.09,-0.97 47.17,25.46 -1.85,37.38 -92.48,23.53 -124.85,22.88l0 -48.02zm147.97 62.52c17.57,-38.03 21.27,-84.43 -30.52,-95.07 -20.35,-4.19 -130.4,-3.22 -153.52,-0.97l0 216.88c28.67,4.19 154.44,4.51 173.86,-5.48 47.16,-22.56 51.79,-85.72 10.17,-115.37z"/>
   <path class="fil2" d="M1515.74 158.5l-18.5 31.58c69.36,48.98 173.86,56.72 207.15,-1.93 23.12,-43.18 -7.4,-81.21 -40.69,-92.81 -41.62,-14.5 -83.23,1.93 -116.52,-26.1l-0.92 -17.08c48.09,-40.93 99.88,-6.45 133.17,13.86 11.1,-8.06 17.57,-19.01 21.27,-27.39 -20.35,-29 -104.5,-49.63 -149.82,-32.23 -56.41,21.59 -59.19,90.88 0.92,108.28 29.59,8.38 57.34,5.48 86,10.64 67.51,11.6 35.14,87.33 -52.71,66.39 -32.37,-7.73 -44.39,-22.24 -69.36,-33.19z"/>
   <path class="fil0" d="M901.68 86.31c86.93,-33.84 135.95,77.34 55.49,104.41 -38.84,13.21 -79.53,-3.87 -91.55,-29.65 -17.57,-40.61 9.25,-64.13 36.07,-74.77zm-74.91 73.8c23.12,100.55 229.35,89.91 205.3,-39.96 -18.5,-108.28 -235.82,-92.49 -205.3,39.96z"/>
   <path class="fil0" d="M462.4 121.43c19.42,17.73 34.22,38.03 51.79,55.43 12.02,11.92 16.65,17.08 25.89,29 10.17,12.25 14.8,19.98 37.92,16.44l0 -170.48 -35.14 1.29 0 101.19c-7.4,-4.51 -1.85,-0.64 -9.25,-7.73l-70.28 -77.02c-12.02,-15.15 -9.25,-18.37 -36.99,-18.05l0 172.09 35.14 -0.32 0.92 -101.84z"/>
   <path class="fil0" d="M776.83 158.82c-27.74,55.75 -126.7,45.44 -130.4,-17.72 -1.85,-32.87 22.19,-53.82 50.86,-58.65 49.01,-9.02 66.58,19.98 81.38,27.39l24.04 -19.66c-14.8,-15.79 -19.42,-26.1 -47.16,-36.09 -61.96,-22.56 -153.52,9.67 -145.19,93.78 10.17,98.93 159.99,105.7 196.06,30.62 -7.4,-9.67 -17.57,-15.47 -29.59,-19.66z"/>
   <polygon class="fil2" points="1362.23,38.61 1501.87,37.97 1500.95,5.42 1326.16,5.74 1326.16,222.95 1362.23,223.27 1363.15,124.34 1446.39,123.05 1446.39,90.18 1362.23,89.85 "/>
   <path class="fil0" d="M295.01 150.76c0.92,-8.38 4.62,-15.47 8.32,-22.24l14.8 -20.63 18.5 43.18 -41.62 -0.32zm-18.5 32.55l78.61 -0.32 19.42 40.61 38.84 -0.32 -70.29 -140.83c-18.5,-36.09 -12.02,-32.23 -38.84,-30.94l-86.93 171.77 37.92 0.32 21.27 -40.28z"/>
  </g>
 </g>
</svg>
